<svg width="59" height="64" viewBox="0 0 269 54" fill="none" xmlns="http://www.w3.org/2000/svg">
<path d="M51.7344 36.0312C51.7344 36.4375 51.625 36.8125 51.4062 37.1562C51.1875 37.4688 51.125 37.8438 51.2188 38.2812C51.0938 38.5 50.9219 38.6719 50.7031 38.7969C50.5156 38.9219 50.4531 39.1562 50.5156 39.5C49.8594 39.8438 49.25 40.2812 48.6875 40.8125C48.1562 41.3125 47.5781 41.7969 46.9531 42.2656C46.5781 42.5469 46.25 42.75 45.9688 42.875C45.7188 42.9688 45.4062 43.125 45.0312 43.3438L43.8594 44.0938C43.3281 44.375 42.7812 44.6562 42.2188 44.9375C41.6875 45.2188 41.2031 45.5781 40.7656 46.0156C40.1094 46.0469 39.4375 46.2188 38.75 46.5312C38.0625 46.875 37.4062 47.1719 36.7812 47.4219C36.5312 47.5156 36.2812 47.5781 36.0312 47.6094C35.7812 47.6719 35.5312 47.7656 35.2812 47.8906L34.5312 48.2188C34.0938 48.4375 33.5781 48.6562 32.9844 48.875C32.3906 49.125 31.8594 49.25 31.3906 49.25C31.1094 49.375 30.875 49.5938 30.6875 49.9062C29.6562 50.25 28.5938 50.5156 27.5 50.7031C26.4062 50.8906 25.3438 51.1875 24.3125 51.5938C23.9688 51.75 23.6094 51.9531 23.2344 52.2031C22.8906 52.4844 22.5156 52.6094 22.1094 52.5781C22.0156 52.7344 21.9531 52.9219 21.9219 53.1406C21.8906 53.3594 21.8438 53.5781 21.7812 53.7969H21.6406C21.5156 53.7969 21.4531 53.7344 21.4531 53.6094C21.4844 53.4844 21.4375 53.4219 21.3125 53.4219C21.2188 53.4219 21.1562 53.4375 21.125 53.4688C20.7188 53.5625 20.3281 53.6406 19.9531 53.7031C19.6094 53.7656 19.2188 53.7969 18.7812 53.7969C18.5312 53.7969 18.125 53.7656 17.5625 53.7031C17.0312 53.6406 16.6406 53.5625 16.3906 53.4688C16.2031 53.375 16.0469 53.2031 15.9219 52.9531C15.7969 52.7031 15.6719 52.4375 15.5469 52.1562C15.4531 51.875 15.3594 51.5781 15.2656 51.2656C15.2031 50.9844 15.1406 50.75 15.0781 50.5625C15.1719 50.2188 15.3281 49.9375 15.5469 49.7188C15.7656 49.5 15.9375 49.2188 16.0625 48.875C16.3438 48.8438 16.625 48.7969 16.9062 48.7344C17.1875 48.6719 17.4688 48.6562 17.75 48.6875C18.7188 48.4062 19.6875 48.125 20.6562 47.8438C21.6562 47.5938 22.6406 47.3281 23.6094 47.0469C24.5781 46.7656 25.5312 46.4531 26.4688 46.1094C27.4062 45.7656 28.3125 45.3438 29.1875 44.8438H30.1719C30.7344 44.5312 31.3594 44.2656 32.0469 44.0469C32.7344 43.8281 33.2969 43.4688 33.7344 42.9688C34.7656 42.75 35.8438 42.4531 36.9688 42.0781C38.0938 41.7031 39.0312 41.1094 39.7812 40.2969C40.25 40.2344 40.6562 40.125 41 39.9688C41.3438 39.7812 41.6719 39.5938 41.9844 39.4062L42.9219 38.7969C43.2344 38.5781 43.5938 38.4062 44 38.2812C44.25 38.0312 44.4844 37.7656 44.7031 37.4844C44.9219 37.2031 45.1875 36.9688 45.5 36.7812C45.4062 36.2812 45.1562 35.9062 44.75 35.6562C44.3438 35.4062 43.9844 35.1094 43.6719 34.7656H42.6406C41.8281 34.2656 40.9531 33.8906 40.0156 33.6406C39.1094 33.3594 38.2031 33.0625 37.2969 32.75C37.2344 32.7188 37.1562 32.7031 37.0625 32.7031C36.8438 32.7031 36.7031 32.7812 36.6406 32.9375C36.6094 33.0938 36.4844 33.1562 36.2656 33.125C35.9844 32.9375 35.6875 32.8281 35.375 32.7969C35.0625 32.7344 34.7344 32.7031 34.3906 32.7031C33.9531 32.7031 33.5156 32.7344 33.0781 32.7969C32.6719 32.8281 32.25 32.8438 31.8125 32.8438C31.5938 32.8438 31.375 32.8281 31.1562 32.7969C30.9375 32.7656 30.7188 32.6875 30.5 32.5625H29.8906C29.2344 32.5625 28.5781 32.5938 27.9219 32.6562C27.2969 32.6875 26.6719 32.7031 26.0469 32.7031C25.7031 32.7031 25.375 32.7031 25.0625 32.7031C24.75 32.6719 24.4375 32.625 24.125 32.5625C23.4688 32.875 22.7656 33.0938 22.0156 33.2188C21.2656 33.3438 20.4844 33.4375 19.6719 33.5C18.8906 33.5625 18.1094 33.625 17.3281 33.6875C16.5469 33.7188 15.7969 33.7969 15.0781 33.9219C14.8906 33.8906 14.7031 33.875 14.5156 33.875C14.3594 33.8438 14.2031 33.8281 14.0469 33.8281C13.8906 33.8281 13.7188 33.8438 13.5312 33.875C13.375 33.875 13.2188 33.8906 13.0625 33.9219C12.6562 33.4844 12.1562 33.1719 11.5625 32.9844C11 32.7656 10.4375 32.625 9.875 32.5625C9.4375 32.0312 9.10938 31.5 8.89062 30.9688C8.70312 30.4062 8.57812 29.7812 8.51562 29.0938H8.70312C8.92188 29.0938 9.01562 28.9844 8.98438 28.7656C8.98438 28.5469 9.0625 28.3594 9.21875 28.2031C9.375 28.0156 9.57812 27.8906 9.82812 27.8281C10.1094 27.7344 10.375 27.6406 10.625 27.5469C10.875 27.4531 11.1094 27.3438 11.3281 27.2188C11.5781 27.0625 11.7656 26.8281 11.8906 26.5156H12.5C12.625 26.5156 12.75 26.5312 12.875 26.5625C13.0312 26.5625 13.1562 26.6094 13.25 26.7031C13.375 26.5781 13.5312 26.4688 13.7188 26.375C13.9062 26.2812 14.0781 26.1875 14.2344 26.0938C14.4219 26 14.5781 25.8906 14.7031 25.7656C14.8281 25.6406 14.9062 25.4531 14.9375 25.2031C14.9688 25.2969 15.0469 25.3438 15.1719 25.3438C15.2969 25.3438 15.4062 25.3125 15.5 25.25C15.625 25.1875 15.7656 25.1719 15.9219 25.2031C16.0781 24.7656 16.3438 24.5312 16.7188 24.5C17.0938 24.4688 17.4375 24.3594 17.75 24.1719C17.9688 24.0469 18.1719 23.9062 18.3594 23.75C18.5469 23.5625 18.75 23.3906 18.9688 23.2344L21.7812 21.0781L26.0938 17.7969C27.5312 16.7031 29 15.6875 30.5 14.75C30.5625 14.5625 30.6562 14.4219 30.7812 14.3281C30.9062 14.2344 31.0312 14.1406 31.1562 14.0469C31.2812 13.9219 31.375 13.7969 31.4375 13.6719C31.5312 13.5469 31.5625 13.3594 31.5312 13.1094C31.9688 13.0156 32.2969 12.8438 32.5156 12.5938C32.7656 12.3438 32.9844 12.0781 33.1719 11.7969C33.3594 11.4844 33.5469 11.1875 33.7344 10.9062C33.9531 10.5938 34.2344 10.3594 34.5781 10.2031C34.5469 10.1094 34.5312 9.96875 34.5312 9.78125C34.5312 9.53125 34.5469 9.28125 34.5781 9.03125C34.6406 8.78125 34.7656 8.5625 34.9531 8.375C34.6719 7.71875 34.1875 7.25 33.5 6.96875C32.8125 6.65625 32.1562 6.39062 31.5312 6.17188H31.3906C31.2344 6.17188 31.1406 6.25 31.1094 6.40625C31.1094 6.53125 31.0312 6.625 30.875 6.6875C30.375 6.5625 29.8125 6.5 29.1875 6.5C28.5625 6.5 27.9375 6.54688 27.3125 6.64062C26.7188 6.73438 26.1094 6.75 25.4844 6.6875C25.3906 6.8125 25.2812 6.9375 25.1562 7.0625C25.0625 7.1875 24.9375 7.29688 24.7812 7.39062C24.125 7.42188 23.4688 7.51562 22.8125 7.67188L20.8438 8.14062L19.7656 8.375C19.6094 8.4375 19.5 8.54688 19.4375 8.70312C19.375 8.85938 19.3281 9.03125 19.2969 9.21875C19.1094 9.1875 18.9844 9.10938 18.9219 8.98438C18.8906 8.85938 18.7812 8.76562 18.5938 8.70312C17.875 9.14062 17.0938 9.5 16.25 9.78125C15.4375 10.0625 14.7031 10.5 14.0469 11.0938C13.8281 10.8438 13.5156 10.7188 13.1094 10.7188C12.7656 10.7188 12.3906 10.8281 11.9844 11.0469C11.5781 11.2656 11.3281 11.5469 11.2344 11.8906C10.9219 11.8281 10.6875 11.7969 10.5312 11.7969C10.1875 11.7969 9.89062 11.8906 9.64062 12.0781C9.42188 12.2656 9.20312 12.4844 8.98438 12.7344C8.76562 12.9531 8.53125 13.1719 8.28125 13.3906C8.03125 13.6094 7.71875 13.7344 7.34375 13.7656C7.34375 13.9219 7.34375 14.0938 7.34375 14.2812C7.375 14.4375 7.39062 14.6094 7.39062 14.7969C7.39062 16.2031 7.3125 17.6094 7.15625 19.0156C7 20.3906 6.92188 21.7812 6.92188 23.1875C6.92188 23.5 6.9375 23.8125 6.96875 24.125C7 24.4062 7.01562 24.7188 7.01562 25.0625C7.01562 25.1562 6.9375 25.3594 6.78125 25.6719C6.65625 25.9844 6.5625 26.2188 6.5 26.375C6.625 26.7188 6.67188 27.0625 6.64062 27.4062C6.64062 27.75 6.71875 28.0781 6.875 28.3906C6.59375 28.6406 6.45312 28.9844 6.45312 29.4219C6.45312 29.6094 6.45312 29.7969 6.45312 29.9844C6.48438 30.1719 6.5 30.3594 6.5 30.5469V31.1094C6.40625 31.7344 6.34375 32.375 6.3125 33.0312C6.28125 33.6562 6.26562 34.2812 6.26562 34.9062C6.26562 35.1875 6.26562 35.6719 6.26562 36.3594C6.29688 37.0156 6.34375 37.7656 6.40625 38.6094C6.46875 39.4219 6.5625 40.2656 6.6875 41.1406C6.8125 42.0156 6.96875 42.8281 7.15625 43.5781C7.375 44.2969 7.64062 44.8906 7.95312 45.3594C8.26562 45.8281 8.64062 46.0625 9.07812 46.0625C9.17188 46.0625 9.28125 46.0469 9.40625 46.0156C9.5625 45.9844 9.64062 45.9062 9.64062 45.7812C9.64062 45.6562 9.60938 45.5469 9.54688 45.4531C9.51562 45.3594 9.5 45.25 9.5 45.125L9.54688 45.0312C9.79688 45.1562 10.0625 45.2344 10.3438 45.2656C10.6562 45.2969 10.9688 45.3281 11.2812 45.3594C11.5938 45.3906 11.8906 45.4375 12.1719 45.5C12.4531 45.5938 12.7031 45.7656 12.9219 46.0156C12.7969 46.2656 12.7344 46.5312 12.7344 46.8125C12.7344 47.1875 12.8281 47.5312 13.0156 47.8438C13.2031 48.1875 13.3281 48.5312 13.3906 48.875C12.7969 49.0625 12.25 49.2656 11.75 49.4844C11.2812 49.7344 10.8125 49.9531 10.3438 50.1406C9.875 50.3594 9.375 50.5469 8.84375 50.7031C8.3125 50.8906 7.70312 51.0156 7.01562 51.0781C6.57812 50.7969 6.20312 50.5469 5.89062 50.3281C5.57812 50.1094 5.15625 49.9688 4.625 49.9062C3.8125 48.8125 3.14062 47.5781 2.60938 46.2031C2.07812 44.8594 1.65625 43.4531 1.34375 41.9844C1.0625 40.5156 0.859375 39.0469 0.734375 37.5781C0.640625 36.0781 0.59375 34.6719 0.59375 33.3594C0.59375 31.9219 0.640625 30.5 0.734375 29.0938C0.859375 27.6562 1.01562 26.2188 1.20312 24.7812C1.26562 24.3438 1.32812 23.9062 1.39062 23.4688C1.45312 23 1.51562 22.5469 1.57812 22.1094C1.64062 21.9531 1.6875 21.7812 1.71875 21.5938C1.78125 21.375 1.8125 21.1875 1.8125 21.0312C1.8125 20.5 1.79688 19.9688 1.76562 19.4375C1.73438 18.9062 1.71875 18.3906 1.71875 17.8906C1.71875 17.1094 1.76562 16.3125 1.85938 15.5C1.89062 15.3438 1.9375 15.1406 2 14.8906C2.09375 14.6406 2.14062 14.4219 2.14062 14.2344C2.14062 13.9844 2.07812 13.8125 1.95312 13.7188C1.82812 13.625 1.71875 13.4688 1.625 13.25C1.71875 12.9375 1.79688 12.6406 1.85938 12.3594C1.92188 12.0469 1.95312 11.7344 1.95312 11.4219C1.95312 10.8281 1.84375 10.3125 1.625 9.875C1.78125 9.0625 2.01562 8.26562 2.32812 7.48438C2.64062 6.70312 3.1875 6.10938 3.96875 5.70312C4.59375 5.73438 5.21875 5.79688 5.84375 5.89062C6.5 5.98438 7.0625 6.25 7.53125 6.6875C7.75 6.5625 8 6.48438 8.28125 6.45312L9.17188 6.35938C9.48438 6.32812 9.76562 6.28125 10.0156 6.21875C10.2656 6.125 10.4844 5.95312 10.6719 5.70312C11.2969 5.57812 11.9688 5.40625 12.6875 5.1875C13.4062 4.9375 14.0312 4.65625 14.5625 4.34375H15.5938C15.8125 4.1875 16.0625 4.07812 16.3438 4.01562L17.2344 3.78125C17.5469 3.6875 17.8281 3.59375 18.0781 3.5C18.3594 3.40625 18.5781 3.25 18.7344 3.03125H18.9219C19.6406 3.03125 20.3438 2.875 21.0312 2.5625C21.7188 2.25 22.3906 1.96875 23.0469 1.71875C23.2031 1.65625 23.4375 1.54688 23.75 1.39062C24.0938 1.23438 24.3281 1.15625 24.4531 1.15625C24.8906 1.09375 25.3281 1.0625 25.7656 1.0625C26.2031 1.03125 26.6406 0.96875 27.0781 0.875C28.0781 0.71875 29.0625 0.546875 30.0312 0.359375C31.0312 0.140625 32.0312 0.03125 33.0312 0.03125C33.375 0.03125 33.6875 0.046875 33.9688 0.078125C34.2812 0.078125 34.6094 0.09375 34.9531 0.125C34.9844 0.25 35.0625 0.359375 35.1875 0.453125C35.3125 0.515625 35.4219 0.578125 35.5156 0.640625C35.6406 0.703125 35.75 0.796875 35.8438 0.921875C35.9375 1.01562 35.9688 1.15625 35.9375 1.34375C36 1.40625 36.0625 1.4375 36.125 1.4375C36.2188 1.4375 36.2969 1.39062 36.3594 1.29688C36.4531 1.20312 36.5781 1.15625 36.7344 1.15625H36.9688C37.375 1.59375 37.7656 2.01562 38.1406 2.42188C38.5469 2.79688 39.0469 3.10938 39.6406 3.35938C39.8906 4.29688 40.1875 5.21875 40.5312 6.125C40.875 7.03125 41.0469 8 41.0469 9.03125C41.0469 9.65625 40.9531 10.2656 40.7656 10.8594C40.3281 11.0781 40.0156 11.4219 39.8281 11.8906C39.6406 12.3594 39.4688 12.8125 39.3125 13.25C38.4375 13.6875 37.7031 14.2656 37.1094 14.9844C36.5156 15.7031 35.9062 16.4219 35.2812 17.1406H34.5312C34.4062 17.1406 34.3125 17.1875 34.25 17.2812L33.8281 17.75C33.5469 18 33.2344 18.25 32.8906 18.5C32.5781 18.75 32.3438 19.0781 32.1875 19.4844C31.2188 20.0156 30.2812 20.6094 29.375 21.2656C28.5 21.9219 27.6562 22.6094 26.8438 23.3281C26.5 23.6094 26.1562 23.9375 25.8125 24.3125C25.4688 24.6562 25.125 24.9531 24.7812 25.2031C24.5938 25.3594 24.375 25.5 24.125 25.625C23.9062 25.7188 23.7031 25.8438 23.5156 26C23.1094 26.3125 22.7344 26.6406 22.3906 26.9844C22.0469 27.2969 21.6875 27.5938 21.3125 27.875C22.7188 27.8125 24.1406 27.7812 25.5781 27.7812C27.0156 27.75 28.4375 27.7188 29.8438 27.6875C30.5625 27.6875 31.2656 27.6719 31.9531 27.6406C32.6406 27.5781 33.3438 27.5469 34.0625 27.5469C34.1875 27.5469 34.2969 27.5781 34.3906 27.6406C34.4844 27.6719 34.5938 27.7031 34.7188 27.7344C35.25 27.8281 35.7188 27.9375 36.125 28.0625C37.625 28.3438 39.125 28.5938 40.625 28.8125C42.125 29.0312 43.5938 29.3906 45.0312 29.8906C45.4375 30.0469 45.7344 30.2188 45.9219 30.4062C46.1406 30.5938 46.5156 30.6406 47.0469 30.5469C47.4844 30.9844 47.9531 31.3281 48.4531 31.5781C48.9844 31.8281 49.5156 32.0469 50.0469 32.2344C50.4531 32.8594 50.8281 33.4531 51.1719 34.0156C51.5469 34.5781 51.7344 35.25 51.7344 36.0312ZM89.4781 30.0781C89.1656 30.1094 88.8844 30.1875 88.6344 30.3125C88.4156 30.4375 88.1813 30.5312 87.9313 30.5938C87.9625 30.625 87.9781 30.6719 87.9781 30.7344C87.9781 30.9219 87.9313 31.0625 87.8375 31.1562C87.7438 31.2188 87.7281 31.375 87.7906 31.625C87.3219 31.875 86.8375 32.0625 86.3375 32.1875C85.8375 32.3125 85.3219 32.4219 84.7906 32.5156C84.2906 32.6094 83.7906 32.7188 83.2906 32.8438C82.7906 32.9688 82.3219 33.1719 81.8844 33.4531V32.9375C81.5094 33.1562 81.15 33.2656 80.8063 33.2656C80.4938 33.2656 80.1969 33.2188 79.9156 33.125C79.6344 33 79.3219 32.9375 78.9781 32.9375C78.8219 32.9375 78.6188 33 78.3688 33.125C78.0563 33.0938 77.8063 33.0156 77.6188 32.8906C77.4625 32.7344 77.2594 32.5781 77.0094 32.4219C76.8531 32.7344 76.6188 32.9375 76.3063 33.0312C76.025 33.0938 75.7594 33.125 75.5094 33.125C75.1656 33.125 74.8375 33.1094 74.525 33.0781C74.2438 33.0469 73.9625 33 73.6813 32.9375C73.1813 33.0938 72.7125 33.1875 72.275 33.2188C71.8375 33.2188 71.3688 33.2188 70.8688 33.2188C70.4313 33.2188 70.0094 33.25 69.6031 33.3125C69.2281 33.3438 68.8375 33.4531 68.4313 33.6406C68.3063 33.3281 68.0406 33.1719 67.6344 33.1719C67.4469 33.1719 67.2438 33.1875 67.025 33.2188C66.8375 33.2188 66.65 33.2188 66.4625 33.2188C66.15 33.2188 65.9156 33.125 65.7594 32.9375C65.6344 33 65.5719 33.1094 65.5719 33.2656C65.6031 33.4219 65.6031 33.5469 65.5719 33.6406C65.1031 33.4531 64.6031 33.3594 64.0719 33.3594C63.6344 33.3594 63.2125 33.4062 62.8063 33.5C62.4 33.5938 61.9938 33.6406 61.5875 33.6406C61.3688 33.6406 61.15 33.6094 60.9313 33.5469C60.7125 33.4844 60.525 33.4531 60.3688 33.4531C60.1813 33.4531 60.0406 33.5 59.9469 33.5938C59.8531 33.6562 59.7594 33.7344 59.6656 33.8281C59.6031 33.8906 59.5094 33.9688 59.3844 34.0625C59.2906 34.125 59.15 34.1562 58.9625 34.1562C58.6188 34.1562 58.3844 34.0625 58.2594 33.875C58.1344 33.6562 57.9469 33.5156 57.6969 33.4531C57.6969 33.1406 57.65 32.8594 57.5563 32.6094C57.4625 32.3594 57.3531 32.1094 57.2281 31.8594C57.1031 31.5781 56.9938 31.3125 56.9 31.0625C56.8063 30.8125 56.7594 30.5312 56.7594 30.2188C56.7594 30.125 56.7594 30.0312 56.7594 29.9375C56.7906 29.8125 56.8063 29.7031 56.8063 29.6094C57.2438 28.9844 57.8688 28.5469 58.6813 28.2969C59.525 28.0156 60.2906 27.875 60.9781 27.875C61.3219 27.875 61.5719 27.9375 61.7281 28.0625C61.9156 28.1875 62.1344 28.3594 62.3844 28.5781C64.5719 28.3281 66.7594 28.1562 68.9469 28.0625C71.1656 27.9688 73.3688 27.8594 75.5563 27.7344C76.275 27.6719 76.9938 27.625 77.7125 27.5938C78.4313 27.5312 79.15 27.4688 79.8688 27.4062C79.9625 27.4062 80.025 27.375 80.0563 27.3125C80.0875 27.2188 80.1031 27.125 80.1031 27.0312C80.1344 26.9375 80.1656 26.8594 80.1969 26.7969C80.2594 26.7344 80.3531 26.7031 80.4781 26.7031C80.8219 26.7031 81.0563 26.8125 81.1813 27.0312C81.3063 27.2188 81.4938 27.3438 81.7438 27.4062C81.9625 27.2812 82.2125 27.1875 82.4938 27.125C82.8063 27.0625 83.1031 27.0156 83.3844 26.9844C83.6656 26.9219 83.9313 26.8594 84.1813 26.7969C84.4625 26.7031 84.6969 26.5625 84.8844 26.375C85.1344 26.3438 85.275 26.4062 85.3063 26.5625C85.3375 26.6875 85.4313 26.7812 85.5875 26.8438C85.7438 26.8125 85.9156 26.7812 86.1031 26.75C86.2906 26.6875 86.4625 26.6562 86.6188 26.6562H86.9469C87.0719 26.6562 87.1813 26.6719 87.275 26.7031C87.5563 27.3281 87.9156 27.8906 88.3531 28.3906C88.8219 28.8906 89.1969 29.4531 89.4781 30.0781ZM151.644 36.0312C151.644 36.4375 151.534 36.8125 151.316 37.1562C151.097 37.4688 151.034 37.8438 151.128 38.2812C151.003 38.5 150.831 38.6719 150.613 38.7969C150.425 38.9219 150.363 39.1562 150.425 39.5C149.769 39.8438 149.159 40.2812 148.597 40.8125C148.066 41.3125 147.488 41.7969 146.863 42.2656C146.488 42.5469 146.159 42.75 145.878 42.875C145.628 42.9688 145.316 43.125 144.941 43.3438L143.769 44.0938C143.238 44.375 142.691 44.6562 142.128 44.9375C141.597 45.2188 141.113 45.5781 140.675 46.0156C140.019 46.0469 139.347 46.2188 138.659 46.5312C137.972 46.875 137.316 47.1719 136.691 47.4219C136.441 47.5156 136.191 47.5781 135.941 47.6094C135.691 47.6719 135.441 47.7656 135.191 47.8906L134.441 48.2188C134.003 48.4375 133.488 48.6562 132.894 48.875C132.3 49.125 131.769 49.25 131.3 49.25C131.019 49.375 130.784 49.5938 130.597 49.9062C129.566 50.25 128.503 50.5156 127.409 50.7031C126.316 50.8906 125.253 51.1875 124.222 51.5938C123.878 51.75 123.519 51.9531 123.144 52.2031C122.8 52.4844 122.425 52.6094 122.019 52.5781C121.925 52.7344 121.863 52.9219 121.831 53.1406C121.8 53.3594 121.753 53.5781 121.691 53.7969H121.55C121.425 53.7969 121.363 53.7344 121.363 53.6094C121.394 53.4844 121.347 53.4219 121.222 53.4219C121.128 53.4219 121.066 53.4375 121.034 53.4688C120.628 53.5625 120.238 53.6406 119.863 53.7031C119.519 53.7656 119.128 53.7969 118.691 53.7969C118.441 53.7969 118.034 53.7656 117.472 53.7031C116.941 53.6406 116.55 53.5625 116.3 53.4688C116.113 53.375 115.956 53.2031 115.831 52.9531C115.706 52.7031 115.581 52.4375 115.456 52.1562C115.363 51.875 115.269 51.5781 115.175 51.2656C115.113 50.9844 115.05 50.75 114.988 50.5625C115.081 50.2188 115.238 49.9375 115.456 49.7188C115.675 49.5 115.847 49.2188 115.972 48.875C116.253 48.8438 116.534 48.7969 116.816 48.7344C117.097 48.6719 117.378 48.6562 117.659 48.6875C118.628 48.4062 119.597 48.125 120.566 47.8438C121.566 47.5938 122.55 47.3281 123.519 47.0469C124.488 46.7656 125.441 46.4531 126.378 46.1094C127.316 45.7656 128.222 45.3438 129.097 44.8438H130.081C130.644 44.5312 131.269 44.2656 131.956 44.0469C132.644 43.8281 133.206 43.4688 133.644 42.9688C134.675 42.75 135.753 42.4531 136.878 42.0781C138.003 41.7031 138.941 41.1094 139.691 40.2969C140.159 40.2344 140.566 40.125 140.909 39.9688C141.253 39.7812 141.581 39.5938 141.894 39.4062L142.831 38.7969C143.144 38.5781 143.503 38.4062 143.909 38.2812C144.159 38.0312 144.394 37.7656 144.613 37.4844C144.831 37.2031 145.097 36.9688 145.409 36.7812C145.316 36.2812 145.066 35.9062 144.659 35.6562C144.253 35.4062 143.894 35.1094 143.581 34.7656H142.55C141.738 34.2656 140.863 33.8906 139.925 33.6406C139.019 33.3594 138.113 33.0625 137.206 32.75C137.144 32.7188 137.066 32.7031 136.972 32.7031C136.753 32.7031 136.613 32.7812 136.55 32.9375C136.519 33.0938 136.394 33.1562 136.175 33.125C135.894 32.9375 135.597 32.8281 135.284 32.7969C134.972 32.7344 134.644 32.7031 134.3 32.7031C133.863 32.7031 133.425 32.7344 132.988 32.7969C132.581 32.8281 132.159 32.8438 131.722 32.8438C131.503 32.8438 131.284 32.8281 131.066 32.7969C130.847 32.7656 130.628 32.6875 130.409 32.5625H129.8C129.144 32.5625 128.488 32.5938 127.831 32.6562C127.206 32.6875 126.581 32.7031 125.956 32.7031C125.613 32.7031 125.284 32.7031 124.972 32.7031C124.659 32.6719 124.347 32.625 124.034 32.5625C123.378 32.875 122.675 33.0938 121.925 33.2188C121.175 33.3438 120.394 33.4375 119.581 33.5C118.8 33.5625 118.019 33.625 117.238 33.6875C116.456 33.7188 115.706 33.7969 114.988 33.9219C114.8 33.8906 114.613 33.875 114.425 33.875C114.269 33.8438 114.113 33.8281 113.956 33.8281C113.8 33.8281 113.628 33.8438 113.441 33.875C113.284 33.875 113.128 33.8906 112.972 33.9219C112.566 33.4844 112.066 33.1719 111.472 32.9844C110.909 32.7656 110.347 32.625 109.784 32.5625C109.347 32.0312 109.019 31.5 108.8 30.9688C108.613 30.4062 108.488 29.7812 108.425 29.0938H108.613C108.831 29.0938 108.925 28.9844 108.894 28.7656C108.894 28.5469 108.972 28.3594 109.128 28.2031C109.284 28.0156 109.488 27.8906 109.738 27.8281C110.019 27.7344 110.284 27.6406 110.534 27.5469C110.784 27.4531 111.019 27.3438 111.238 27.2188C111.488 27.0625 111.675 26.8281 111.8 26.5156H112.409C112.534 26.5156 112.659 26.5312 112.784 26.5625C112.941 26.5625 113.066 26.6094 113.159 26.7031C113.284 26.5781 113.441 26.4688 113.628 26.375C113.816 26.2812 113.988 26.1875 114.144 26.0938C114.331 26 114.488 25.8906 114.613 25.7656C114.738 25.6406 114.816 25.4531 114.847 25.2031C114.878 25.2969 114.956 25.3438 115.081 25.3438C115.206 25.3438 115.316 25.3125 115.409 25.25C115.534 25.1875 115.675 25.1719 115.831 25.2031C115.988 24.7656 116.253 24.5312 116.628 24.5C117.003 24.4688 117.347 24.3594 117.659 24.1719C117.878 24.0469 118.081 23.9062 118.269 23.75C118.456 23.5625 118.659 23.3906 118.878 23.2344L121.691 21.0781L126.003 17.7969C127.441 16.7031 128.909 15.6875 130.409 14.75C130.472 14.5625 130.566 14.4219 130.691 14.3281C130.816 14.2344 130.941 14.1406 131.066 14.0469C131.191 13.9219 131.284 13.7969 131.347 13.6719C131.441 13.5469 131.472 13.3594 131.441 13.1094C131.878 13.0156 132.206 12.8438 132.425 12.5938C132.675 12.3438 132.894 12.0781 133.081 11.7969C133.269 11.4844 133.456 11.1875 133.644 10.9062C133.863 10.5938 134.144 10.3594 134.488 10.2031C134.456 10.1094 134.441 9.96875 134.441 9.78125C134.441 9.53125 134.456 9.28125 134.488 9.03125C134.55 8.78125 134.675 8.5625 134.863 8.375C134.581 7.71875 134.097 7.25 133.409 6.96875C132.722 6.65625 132.066 6.39062 131.441 6.17188H131.3C131.144 6.17188 131.05 6.25 131.019 6.40625C131.019 6.53125 130.941 6.625 130.784 6.6875C130.284 6.5625 129.722 6.5 129.097 6.5C128.472 6.5 127.847 6.54688 127.222 6.64062C126.628 6.73438 126.019 6.75 125.394 6.6875C125.3 6.8125 125.191 6.9375 125.066 7.0625C124.972 7.1875 124.847 7.29688 124.691 7.39062C124.034 7.42188 123.378 7.51562 122.722 7.67188L120.753 8.14062L119.675 8.375C119.519 8.4375 119.409 8.54688 119.347 8.70312C119.284 8.85938 119.238 9.03125 119.206 9.21875C119.019 9.1875 118.894 9.10938 118.831 8.98438C118.8 8.85938 118.691 8.76562 118.503 8.70312C117.784 9.14062 117.003 9.5 116.159 9.78125C115.347 10.0625 114.613 10.5 113.956 11.0938C113.738 10.8438 113.425 10.7188 113.019 10.7188C112.675 10.7188 112.3 10.8281 111.894 11.0469C111.488 11.2656 111.238 11.5469 111.144 11.8906C110.831 11.8281 110.597 11.7969 110.441 11.7969C110.097 11.7969 109.8 11.8906 109.55 12.0781C109.331 12.2656 109.113 12.4844 108.894 12.7344C108.675 12.9531 108.441 13.1719 108.191 13.3906C107.941 13.6094 107.628 13.7344 107.253 13.7656C107.253 13.9219 107.253 14.0938 107.253 14.2812C107.284 14.4375 107.3 14.6094 107.3 14.7969C107.3 16.2031 107.222 17.6094 107.066 19.0156C106.909 20.3906 106.831 21.7812 106.831 23.1875C106.831 23.5 106.847 23.8125 106.878 24.125C106.909 24.4062 106.925 24.7188 106.925 25.0625C106.925 25.1562 106.847 25.3594 106.691 25.6719C106.566 25.9844 106.472 26.2188 106.409 26.375C106.534 26.7188 106.581 27.0625 106.55 27.4062C106.55 27.75 106.628 28.0781 106.784 28.3906C106.503 28.6406 106.363 28.9844 106.363 29.4219C106.363 29.6094 106.363 29.7969 106.363 29.9844C106.394 30.1719 106.409 30.3594 106.409 30.5469V31.1094C106.316 31.7344 106.253 32.375 106.222 33.0312C106.191 33.6562 106.175 34.2812 106.175 34.9062C106.175 35.1875 106.175 35.6719 106.175 36.3594C106.206 37.0156 106.253 37.7656 106.316 38.6094C106.378 39.4219 106.472 40.2656 106.597 41.1406C106.722 42.0156 106.878 42.8281 107.066 43.5781C107.284 44.2969 107.55 44.8906 107.863 45.3594C108.175 45.8281 108.55 46.0625 108.988 46.0625C109.081 46.0625 109.191 46.0469 109.316 46.0156C109.472 45.9844 109.55 45.9062 109.55 45.7812C109.55 45.6562 109.519 45.5469 109.456 45.4531C109.425 45.3594 109.409 45.25 109.409 45.125L109.456 45.0312C109.706 45.1562 109.972 45.2344 110.253 45.2656C110.566 45.2969 110.878 45.3281 111.191 45.3594C111.503 45.3906 111.8 45.4375 112.081 45.5C112.363 45.5938 112.613 45.7656 112.831 46.0156C112.706 46.2656 112.644 46.5312 112.644 46.8125C112.644 47.1875 112.738 47.5312 112.925 47.8438C113.113 48.1875 113.238 48.5312 113.3 48.875C112.706 49.0625 112.159 49.2656 111.659 49.4844C111.191 49.7344 110.722 49.9531 110.253 50.1406C109.784 50.3594 109.284 50.5469 108.753 50.7031C108.222 50.8906 107.613 51.0156 106.925 51.0781C106.488 50.7969 106.113 50.5469 105.8 50.3281C105.488 50.1094 105.066 49.9688 104.534 49.9062C103.722 48.8125 103.05 47.5781 102.519 46.2031C101.988 44.8594 101.566 43.4531 101.253 41.9844C100.972 40.5156 100.769 39.0469 100.644 37.5781C100.55 36.0781 100.503 34.6719 100.503 33.3594C100.503 31.9219 100.55 30.5 100.644 29.0938C100.769 27.6562 100.925 26.2188 101.113 24.7812C101.175 24.3438 101.238 23.9062 101.3 23.4688C101.363 23 101.425 22.5469 101.488 22.1094C101.55 21.9531 101.597 21.7812 101.628 21.5938C101.691 21.375 101.722 21.1875 101.722 21.0312C101.722 20.5 101.706 19.9688 101.675 19.4375C101.644 18.9062 101.628 18.3906 101.628 17.8906C101.628 17.1094 101.675 16.3125 101.769 15.5C101.8 15.3438 101.847 15.1406 101.909 14.8906C102.003 14.6406 102.05 14.4219 102.05 14.2344C102.05 13.9844 101.988 13.8125 101.863 13.7188C101.738 13.625 101.628 13.4688 101.534 13.25C101.628 12.9375 101.706 12.6406 101.769 12.3594C101.831 12.0469 101.863 11.7344 101.863 11.4219C101.863 10.8281 101.753 10.3125 101.534 9.875C101.691 9.0625 101.925 8.26562 102.238 7.48438C102.55 6.70312 103.097 6.10938 103.878 5.70312C104.503 5.73438 105.128 5.79688 105.753 5.89062C106.409 5.98438 106.972 6.25 107.441 6.6875C107.659 6.5625 107.909 6.48438 108.191 6.45312L109.081 6.35938C109.394 6.32812 109.675 6.28125 109.925 6.21875C110.175 6.125 110.394 5.95312 110.581 5.70312C111.206 5.57812 111.878 5.40625 112.597 5.1875C113.316 4.9375 113.941 4.65625 114.472 4.34375H115.503C115.722 4.1875 115.972 4.07812 116.253 4.01562L117.144 3.78125C117.456 3.6875 117.738 3.59375 117.988 3.5C118.269 3.40625 118.488 3.25 118.644 3.03125H118.831C119.55 3.03125 120.253 2.875 120.941 2.5625C121.628 2.25 122.3 1.96875 122.956 1.71875C123.113 1.65625 123.347 1.54688 123.659 1.39062C124.003 1.23438 124.238 1.15625 124.363 1.15625C124.8 1.09375 125.238 1.0625 125.675 1.0625C126.113 1.03125 126.55 0.96875 126.988 0.875C127.988 0.71875 128.972 0.546875 129.941 0.359375C130.941 0.140625 131.941 0.03125 132.941 0.03125C133.284 0.03125 133.597 0.046875 133.878 0.078125C134.191 0.078125 134.519 0.09375 134.863 0.125C134.894 0.25 134.972 0.359375 135.097 0.453125C135.222 0.515625 135.331 0.578125 135.425 0.640625C135.55 0.703125 135.659 0.796875 135.753 0.921875C135.847 1.01562 135.878 1.15625 135.847 1.34375C135.909 1.40625 135.972 1.4375 136.034 1.4375C136.128 1.4375 136.206 1.39062 136.269 1.29688C136.363 1.20312 136.488 1.15625 136.644 1.15625H136.878C137.284 1.59375 137.675 2.01562 138.05 2.42188C138.456 2.79688 138.956 3.10938 139.55 3.35938C139.8 4.29688 140.097 5.21875 140.441 6.125C140.784 7.03125 140.956 8 140.956 9.03125C140.956 9.65625 140.863 10.2656 140.675 10.8594C140.238 11.0781 139.925 11.4219 139.738 11.8906C139.55 12.3594 139.378 12.8125 139.222 13.25C138.347 13.6875 137.613 14.2656 137.019 14.9844C136.425 15.7031 135.816 16.4219 135.191 17.1406H134.441C134.316 17.1406 134.222 17.1875 134.159 17.2812L133.738 17.75C133.456 18 133.144 18.25 132.8 18.5C132.488 18.75 132.253 19.0781 132.097 19.4844C131.128 20.0156 130.191 20.6094 129.284 21.2656C128.409 21.9219 127.566 22.6094 126.753 23.3281C126.409 23.6094 126.066 23.9375 125.722 24.3125C125.378 24.6562 125.034 24.9531 124.691 25.2031C124.503 25.3594 124.284 25.5 124.034 25.625C123.816 25.7188 123.613 25.8438 123.425 26C123.019 26.3125 122.644 26.6406 122.3 26.9844C121.956 27.2969 121.597 27.5938 121.222 27.875C122.628 27.8125 124.05 27.7812 125.488 27.7812C126.925 27.75 128.347 27.7188 129.753 27.6875C130.472 27.6875 131.175 27.6719 131.863 27.6406C132.55 27.5781 133.253 27.5469 133.972 27.5469C134.097 27.5469 134.206 27.5781 134.3 27.6406C134.394 27.6719 134.503 27.7031 134.628 27.7344C135.159 27.8281 135.628 27.9375 136.034 28.0625C137.534 28.3438 139.034 28.5938 140.534 28.8125C142.034 29.0312 143.503 29.3906 144.941 29.8906C145.347 30.0469 145.644 30.2188 145.831 30.4062C146.05 30.5938 146.425 30.6406 146.956 30.5469C147.394 30.9844 147.863 31.3281 148.363 31.5781C148.894 31.8281 149.425 32.0469 149.956 32.2344C150.363 32.8594 150.738 33.4531 151.081 34.0156C151.456 34.5781 151.644 35.25 151.644 36.0312ZM182.122 31.9531C182.122 32.2969 181.997 32.5625 181.747 32.75C181.497 32.9062 181.372 33.125 181.372 33.4062C181.372 33.5312 181.434 33.6875 181.559 33.875C181.122 33.875 180.825 34.0156 180.669 34.2969C180.512 34.5781 180.356 34.8906 180.2 35.2344H179.591C179.434 35.2344 179.309 35.2656 179.216 35.3281C179.122 35.3906 179.028 35.4844 178.934 35.6094C178.872 35.7031 178.778 35.8594 178.653 36.0781C178.059 36.2031 177.481 36.4062 176.919 36.6875C176.387 36.9375 175.856 37.2188 175.325 37.5312C174.825 37.8125 174.309 38.1094 173.778 38.4219C173.247 38.7031 172.7 38.9375 172.137 39.125C171.856 39.5938 171.45 39.9688 170.919 40.25H170.778C170.622 40.2812 170.481 40.2656 170.356 40.2031C170.262 40.1094 170.137 40.0625 169.981 40.0625C169.887 40.0625 169.825 40.0781 169.794 40.1094C168.856 40.7344 167.809 41.0469 166.653 41.0469C166.341 41.0469 166.044 41.0312 165.762 41C165.481 40.9375 165.184 40.9062 164.872 40.9062C164.778 40.9062 164.716 40.9375 164.684 41L164.591 41.1875C164.559 41.25 164.512 41.3125 164.45 41.375C164.419 41.4375 164.309 41.4688 164.122 41.4688C163.778 41.4688 163.434 41.4219 163.091 41.3281C162.747 41.2344 162.387 41.2188 162.012 41.2812C161.294 40.875 160.731 40.4844 160.325 40.1094C159.919 39.7344 159.544 39.1719 159.2 38.4219C159.044 38.0781 158.825 37.75 158.544 37.4375C158.294 37.125 158.106 36.7812 157.981 36.4062C157.95 36.2812 157.903 36.0625 157.841 35.75C157.778 35.4062 157.716 35.0469 157.653 34.6719C157.591 34.2969 157.528 33.9375 157.466 33.5938C157.434 33.25 157.419 33.0156 157.419 32.8906C157.419 32.5156 157.434 32.1562 157.466 31.8125C157.528 31.4375 157.591 31.0625 157.653 30.6875C157.841 29.5 157.966 28.3125 158.028 27.125C158.122 25.9062 158.387 24.7344 158.825 23.6094C158.762 23.2656 158.731 22.9375 158.731 22.625V21.5938C158.731 21 158.653 20.5 158.497 20.0938C158.747 19.6875 158.872 19.2344 158.872 18.7344C158.872 18.1719 158.637 17.8438 158.169 17.75V17.6094C158.169 16.9531 157.95 16.4375 157.512 16.0625C157.512 14.9688 157.778 14.1562 158.309 13.625C158.872 13.0625 159.606 12.5781 160.512 12.1719C160.637 11.9844 160.684 11.8281 160.653 11.7031C160.872 11.7656 161.075 11.8281 161.262 11.8906C161.45 11.9531 161.637 11.9844 161.825 11.9844C162.137 11.9844 162.419 11.9375 162.669 11.8438C162.762 12.2188 162.997 12.4531 163.372 12.5469C163.778 12.6094 164.106 12.7031 164.356 12.8281V13.4375C164.356 14.4062 164.591 15.3281 165.059 16.2031C164.934 16.4531 164.856 16.7188 164.825 17C164.794 17.2812 164.778 17.5469 164.778 17.7969C164.778 18.1719 164.794 18.5469 164.825 18.9219C164.856 19.2969 164.872 19.6562 164.872 20C164.872 20.375 164.825 20.75 164.731 21.125C164.669 21.5 164.497 21.8281 164.216 22.1094C164.184 22.5156 164.153 22.9844 164.122 23.5156C164.122 24.0156 164.091 24.5312 164.028 25.0625C163.997 25.5938 163.919 26.1094 163.794 26.6094C163.669 27.1094 163.481 27.5156 163.231 27.8281C163.2 28.2969 163.169 28.7812 163.137 29.2812C163.137 29.75 163.137 30.2031 163.137 30.6406C163.137 31.3281 163.169 32.1406 163.231 33.0781C163.325 34.0156 163.544 34.7969 163.887 35.4219C164.044 35.6719 164.341 35.8594 164.778 35.9844C165.247 36.1094 165.622 36.1719 165.903 36.1719C166.247 36.1719 166.591 36.125 166.934 36.0312C167.309 35.9062 167.575 35.7031 167.731 35.4219C167.919 35.4531 168.044 35.5469 168.106 35.7031C168.169 35.8594 168.278 35.9844 168.434 36.0781C170.216 35.3281 171.997 34.6094 173.778 33.9219C175.559 33.2344 177.309 32.4375 179.028 31.5312C179.278 31.6562 179.544 31.7188 179.825 31.7188C180.137 31.7188 180.45 31.6875 180.762 31.625C181.075 31.5625 181.387 31.5312 181.7 31.5312H182.028C182.091 31.7188 182.122 31.8594 182.122 31.9531ZM213.866 16.8594C213.678 17.1406 213.569 17.4531 213.538 17.7969C213.506 18.1406 213.491 18.4531 213.491 18.7344C213.491 19.1094 213.491 19.4844 213.491 19.8594C213.522 20.2031 213.538 20.5469 213.538 20.8906V21.5938C213.475 21.8125 213.381 22.0312 213.256 22.25C213.131 22.4688 213.038 22.6875 212.975 22.9062C212.538 24.0625 212.319 25.2188 212.319 26.375V26.4688C212.163 26.8438 212.006 27.1875 211.85 27.5C211.725 27.8125 211.6 28.125 211.475 28.4375C211.35 28.7188 211.256 29.0312 211.194 29.375C211.131 29.6875 211.116 30.0625 211.147 30.5C210.709 31.5938 210.131 32.5938 209.413 33.5C208.694 34.375 207.991 35.2812 207.303 36.2188C206.647 36.4688 206.038 36.7969 205.475 37.2031C204.944 37.6094 204.428 38.0625 203.928 38.5625C202.959 38.875 202.006 39.2344 201.069 39.6406C200.131 40.0469 199.288 40.5938 198.538 41.2812C197.944 41.3438 197.35 41.4375 196.756 41.5625C196.163 41.6875 195.584 41.875 195.022 42.125H194.459C194.178 42.125 193.975 42.0625 193.85 41.9375C193.444 42.1562 193.022 42.3125 192.584 42.4062C192.147 42.4688 191.709 42.5 191.272 42.5C190.709 42.5 190.147 42.4688 189.584 42.4062C189.053 42.3125 188.506 42.2188 187.944 42.125C187.631 41.6875 187.194 41.3594 186.631 41.1406C186.069 40.8906 185.569 40.6562 185.131 40.4375C184.225 39.1875 183.569 37.9844 183.163 36.8281C182.756 35.6406 182.334 34.3125 181.897 32.8438C181.959 32.4062 182.069 31.9844 182.225 31.5781C182.381 31.1406 182.444 30.6719 182.413 30.1719C182.975 28.5469 183.709 27.0781 184.616 25.7656C185.553 24.4219 186.616 23.1406 187.803 21.9219C187.803 21.7344 187.834 21.5781 187.897 21.4531C187.991 21.3281 188.006 21.1406 187.944 20.8906C187.975 20.9219 188.038 20.9375 188.131 20.9375C188.381 20.9375 188.538 20.875 188.6 20.75C188.663 20.5938 188.678 20.4219 188.647 20.2344C189.772 19.5156 190.788 18.6875 191.694 17.75C192.631 16.8125 193.694 16.0312 194.881 15.4062C194.975 15.125 195.131 14.8906 195.35 14.7031C195.569 14.5156 195.741 14.2969 195.866 14.0469C196.866 13.7656 197.772 13.3438 198.584 12.7812C199.397 12.2188 200.256 11.7188 201.163 11.2812C201.663 11 202.131 10.8125 202.569 10.7188C203.038 10.5938 203.538 10.4688 204.069 10.3438C204.256 10.2812 204.428 10.2344 204.584 10.2031C204.741 10.1719 204.913 10.1562 205.1 10.1562C205.663 10.1562 206.209 10.2656 206.741 10.4844C207.272 10.6719 207.819 10.7656 208.381 10.7656C208.538 10.7656 208.663 10.7656 208.756 10.7656C208.881 10.7344 209.006 10.7031 209.131 10.6719C209.663 11.3281 210.334 11.8281 211.147 12.1719C211.334 12.6406 211.553 13.0469 211.803 13.3906C212.084 13.7344 212.366 14.0781 212.647 14.4219C212.928 14.7344 213.178 15.0938 213.397 15.5C213.647 15.875 213.803 16.3281 213.866 16.8594ZM209.178 19.2969C209.178 19.1406 209.163 19 209.131 18.875C208.819 18.7812 208.522 18.6562 208.241 18.5C207.959 18.3438 207.647 18.2656 207.303 18.2656C207.084 18.2656 206.866 18.3125 206.647 18.4062C206.616 18.1875 206.522 18.0312 206.366 17.9375C206.241 17.8438 206.084 17.7656 205.897 17.7031C205.741 17.6094 205.569 17.5469 205.381 17.5156C205.225 17.4531 205.084 17.3594 204.959 17.2344C204.866 16.9844 204.756 16.7344 204.631 16.4844C204.538 16.2031 204.35 16 204.069 15.875C203.788 16.1562 203.459 16.3906 203.084 16.5781C202.709 16.7344 202.319 16.8906 201.913 17.0469C201.538 17.2031 201.163 17.3906 200.788 17.6094C200.444 17.8281 200.147 18.0938 199.897 18.4062H199.053C198.866 18.75 198.6 19.0156 198.256 19.2031C197.913 19.3594 197.616 19.5938 197.366 19.9062C196.866 20.1562 196.397 20.4688 195.959 20.8438C195.553 21.1875 195.147 21.5625 194.741 21.9688C194.334 22.3438 193.928 22.7344 193.522 23.1406C193.147 23.5469 192.741 23.9219 192.303 24.2656C191.897 25.1406 191.444 25.9062 190.944 26.5625C190.475 27.1875 190.022 27.8281 189.584 28.4844C189.178 29.1406 188.819 29.8594 188.506 30.6406C188.225 31.3906 188.084 32.3281 188.084 33.4531V33.9219C188.084 34.0781 188.1 34.2344 188.131 34.3906C188.538 34.8281 188.866 35.2969 189.116 35.7969C189.397 36.2969 189.85 36.6562 190.475 36.875C191.1 37.125 191.756 37.2344 192.444 37.2031C193.163 37.1719 193.85 37.25 194.506 37.4375C196.006 37.1562 197.444 36.7031 198.819 36.0781C200.225 35.4219 201.553 34.6406 202.803 33.7344C202.991 33.5781 203.209 33.4219 203.459 33.2656C203.709 33.0781 203.913 32.8906 204.069 32.7031C204.225 32.5469 204.35 32.375 204.444 32.1875C204.569 32 204.694 31.8281 204.819 31.6719C205.069 31.2656 205.35 30.8594 205.663 30.4531C205.975 30.0469 206.303 29.6719 206.647 29.3281C206.803 28.6406 207.006 27.9844 207.256 27.3594C207.506 26.7031 207.756 26.0625 208.006 25.4375C208.256 24.8125 208.459 24.1719 208.616 23.5156C208.803 22.8594 208.897 22.1719 208.897 21.4531C208.897 21.2969 208.881 21.125 208.85 20.9375C208.85 20.75 208.834 20.5781 208.803 20.4219C209.053 20.0781 209.178 19.7031 209.178 19.2969ZM268.344 18.0781C268.25 18.3594 268.062 18.5625 267.781 18.6875C267.531 18.7812 267.266 18.8594 266.984 18.9219C266.703 18.9844 266.438 19.0938 266.188 19.25C265.969 19.375 265.828 19.5938 265.766 19.9062L265.672 19.9531C265.547 19.9531 265.453 19.9219 265.391 19.8594C265.359 19.7656 265.328 19.6875 265.297 19.625C265.266 19.5312 265.219 19.4531 265.156 19.3906C265.125 19.2969 265.062 19.25 264.969 19.25C264.625 19.25 264.281 19.2812 263.938 19.3438C263.625 19.4062 263.312 19.4375 263 19.4375C262.531 19.4375 262.109 19.375 261.734 19.25C261.516 19.3125 261.391 19.4531 261.359 19.6719C261.359 19.8906 261.266 20.0312 261.078 20.0938C260.922 20.1562 260.734 20.1875 260.516 20.1875C260.297 20.1562 260.078 20.1719 259.859 20.2344L258.359 20.6094C257.859 20.7344 257.359 20.7969 256.859 20.7969C256.578 20.7969 256.375 20.7812 256.25 20.75C255.781 21.125 255.25 21.4062 254.656 21.5938C254.062 21.75 253.438 21.9062 252.781 22.0625C252.156 22.1875 251.531 22.3594 250.906 22.5781C250.312 22.7969 249.781 23.1406 249.312 23.6094C249.062 23.5469 248.844 23.5156 248.656 23.5156C248.25 23.5156 247.891 23.6094 247.578 23.7969C247.266 23.9531 246.938 24.1094 246.594 24.2656C246.438 24.3281 246.281 24.3594 246.125 24.3594C245.969 24.3594 245.797 24.3906 245.609 24.4531C245.422 24.5156 245.297 24.625 245.234 24.7812C245.203 24.9062 245.109 25.0312 244.953 25.1562C244.953 26.2812 245.062 27.4062 245.281 28.5312C245.5 29.625 245.609 30.7344 245.609 31.8594V32.0469C245.672 32.5781 245.844 33.0781 246.125 33.5469C246.406 33.9844 246.547 34.4375 246.547 34.9062C246.547 35.0625 246.516 35.2344 246.453 35.4219C247.266 35.6094 247.797 36.0312 248.047 36.6875C248.328 37.3125 248.547 38 248.703 38.75C248.891 39.4688 249.125 40.1406 249.406 40.7656C249.719 41.3906 250.312 41.7812 251.188 41.9375C251.25 42.25 251.297 42.5781 251.328 42.9219C251.359 43.2344 251.375 43.5469 251.375 43.8594C251.375 44.2969 251.328 44.7188 251.234 45.125C251.141 45.5625 250.953 45.9531 250.672 46.2969C250.203 46.3281 249.859 46.3438 249.641 46.3438C249.422 46.3438 249.094 46.4375 248.656 46.625C248.031 46.25 247.469 45.8125 246.969 45.3125C246.5 44.8438 246.047 44.3438 245.609 43.8125C245.203 43.25 244.797 42.6875 244.391 42.125C243.984 41.5312 243.547 40.9688 243.078 40.4375C241.453 40.8438 239.781 41.125 238.062 41.2812C236.375 41.4062 234.688 41.4688 233 41.4688C232.938 41.5312 232.844 41.5625 232.719 41.5625C232.594 41.5625 232.469 41.5781 232.344 41.6094C232.25 41.6094 232.156 41.6406 232.062 41.7031C232 41.7344 231.984 41.8125 232.016 41.9375C231.797 41.8125 231.547 41.7344 231.266 41.7031C231.016 41.6406 230.781 41.6094 230.562 41.6094C230.406 41.6094 230.25 41.625 230.094 41.6562C229.938 41.6562 229.781 41.7031 229.625 41.7969C228.438 41.5781 227.281 41.2812 226.156 40.9062C225.062 40.5 223.938 40.1719 222.781 39.9219C222.781 39.6719 222.719 39.5 222.594 39.4062C222.469 39.2812 222.359 39.1094 222.266 38.8906C220.953 38.0781 219.844 37.0938 218.938 35.9375C218.062 34.7812 217.703 33.375 217.859 31.7188L217.531 31.0625C217.531 30.5625 217.641 30.2031 217.859 29.9844C217.734 29.7656 217.516 29.5469 217.203 29.3281C217.484 28.8906 217.734 28.4375 217.953 27.9688C218.172 27.5 218.328 27 218.422 26.4688C218.453 26.3125 218.469 26.1719 218.469 26.0469C218.469 25.9219 218.5 25.7812 218.562 25.625C218.625 25.4375 218.719 25.2344 218.844 25.0156C218.938 24.7656 219.031 24.5469 219.125 24.3594C219.625 23.2969 220.172 22.2812 220.766 21.3125C221.391 20.3125 222.172 19.4531 223.109 18.7344C223.172 18.2031 223.328 17.7656 223.578 17.4219C223.828 17.0469 224.094 16.7188 224.375 16.4375C224.688 16.125 224.984 15.8125 225.266 15.5C225.578 15.1875 225.812 14.8125 225.969 14.375C226.594 13.8438 227.219 13.3281 227.844 12.8281C228.5 12.3281 229.047 11.7344 229.484 11.0469C230.047 10.8594 230.578 10.625 231.078 10.3438C231.578 10.0312 232 9.64062 232.344 9.17188C233.094 9.10938 233.828 8.96875 234.547 8.75C235.297 8.53125 236.078 8.42188 236.891 8.42188C237.234 8.42188 237.641 8.5 238.109 8.65625C238.609 8.78125 238.984 9.01562 239.234 9.35938C239.266 9.42188 239.281 9.5 239.281 9.59375L239.328 9.82812C239.359 9.89062 239.391 9.95312 239.422 10.0156C239.484 10.0469 239.578 10.0469 239.703 10.0156C239.703 10.7031 239.625 11.4062 239.469 12.125C239.312 12.8125 238.906 13.3438 238.25 13.7188C237.844 13.5938 237.406 13.5312 236.938 13.5312C236.312 13.5312 235.734 13.6562 235.203 13.9062C234.703 14.125 234.203 14.3906 233.703 14.7031C233.234 14.9844 232.75 15.2812 232.25 15.5938C231.75 15.875 231.219 16.0781 230.656 16.2031C230.594 16.4531 230.531 16.6875 230.469 16.9062C230.438 17.0938 230.453 17.3125 230.516 17.5625C230.359 17.5625 230.234 17.5469 230.141 17.5156C230.078 17.4531 229.969 17.4219 229.812 17.4219C229.594 17.4219 229.438 17.5469 229.344 17.7969C229.281 18.0469 229.219 18.25 229.156 18.4062C228.562 18.6562 228.062 19.0156 227.656 19.4844C227.281 19.9219 226.922 20.4062 226.578 20.9375C226.266 21.4375 225.922 21.9219 225.547 22.3906C225.172 22.8594 224.703 23.2188 224.141 23.4688C223.891 24.4688 223.641 25.4531 223.391 26.4219C223.172 27.3906 222.906 28.3594 222.594 29.3281C222.688 29.7031 222.734 30.0938 222.734 30.5C222.734 31 222.688 31.4531 222.594 31.8594C222.75 32.1094 222.906 32.4062 223.062 32.75L223.625 33.8281C223.812 34.2031 224 34.5469 224.188 34.8594C224.406 35.1719 224.609 35.4062 224.797 35.5625C225.141 35.8125 225.672 36.0469 226.391 36.2656C227.109 36.4531 227.75 36.7812 228.312 37.25C228.375 37.25 228.453 37.25 228.547 37.25C228.641 37.2188 228.719 37.2031 228.781 37.2031C229.156 37.2031 229.562 37.2969 230 37.4844C230.438 37.6719 230.719 37.7656 230.844 37.7656C232.594 37.7656 234.5 37.6562 236.562 37.4375C238.625 37.1875 240.531 36.8906 242.281 36.5469C242.344 36.2344 242.375 35.9688 242.375 35.75C242.375 35.3438 242.312 34.9531 242.188 34.5781C242.062 34.1719 241.859 33.8281 241.578 33.5469C241.578 33.0781 241.578 32.6094 241.578 32.1406C241.609 31.6719 241.625 31.2031 241.625 30.7344C241.625 29.9531 241.594 29.125 241.531 28.25C241.469 27.375 241.312 26.5625 241.062 25.8125H240.969C240.562 25.8125 240.188 25.9219 239.844 26.1406C239.531 26.3281 239.203 26.4219 238.859 26.4219C238.672 26.4219 238.516 26.375 238.391 26.2812C238.016 26.7188 237.562 27.0469 237.031 27.2656C236.5 27.4844 235.938 27.6875 235.344 27.875C234.75 28.0312 234.156 28.2031 233.562 28.3906C233 28.5781 232.484 28.8438 232.016 29.1875C231.766 29.0938 231.531 29.0469 231.312 29.0469C231.094 29.0469 230.875 29.0625 230.656 29.0938C230.469 29.125 230.25 29.1562 230 29.1875C229.344 28.625 229.016 27.9219 229.016 27.0781C229.016 26.6406 229.078 26.2188 229.203 25.8125C229.359 25.375 229.562 24.9688 229.812 24.5938C229.969 24.5 230.156 24.4531 230.375 24.4531C230.594 24.4219 230.812 24.3906 231.031 24.3594C231.25 24.2969 231.422 24.2188 231.547 24.125C231.703 24.0312 231.797 23.8594 231.828 23.6094C231.922 23.7031 232 23.75 232.062 23.75C232.125 23.75 232.188 23.7344 232.25 23.7031C232.312 23.6719 232.375 23.6562 232.438 23.6562C232.5 23.6562 232.547 23.6875 232.578 23.75C232.641 23.8125 232.672 23.875 232.672 23.9375C234.016 23.2188 235.391 22.6094 236.797 22.1094C238.203 21.6094 239.625 21.1562 241.062 20.75C242.531 20.3438 244 19.9688 245.469 19.625C246.938 19.25 248.391 18.8438 249.828 18.4062C250.047 18.2188 250.281 18.0781 250.531 17.9844C250.781 17.8906 251 17.75 251.188 17.5625C251.406 17.6875 251.672 17.75 251.984 17.75C252.422 17.75 252.891 17.6719 253.391 17.5156C253.922 17.3281 254.359 17.1094 254.703 16.8594C254.828 16.8906 254.938 16.9062 255.031 16.9062H255.359C255.984 16.9062 256.562 16.8125 257.094 16.625C257.656 16.4375 258.203 16.1875 258.734 15.875H258.969C259.938 15.875 260.891 15.7656 261.828 15.5469C262.797 15.3281 263.781 15.2188 264.781 15.2188C266.062 15.2188 267.188 15.5469 268.156 16.2031V16.7656C268.156 17.0156 268.156 17.25 268.156 17.4688C268.188 17.6562 268.25 17.8594 268.344 18.0781Z" fill="#E4DFDF"/>
</svg>

